<svg xmlns="http://www.w3.org/2000/svg" width="32" height="32.186" viewBox="0 0 32 32.186">
  <g id="Logo_icon" transform="translate(-235.498 -88.056)">
    <g id="vPl9l8_1_" transform="translate(117 -30)">
      <g id="XMLID_12_" transform="translate(118.498 118.056)">
        <path id="XMLID_10_" d="M143.348,132.483H138a1.675,1.675,0,0,1-1.552-1.1,3.387,3.387,0,0,1-.2-1.08c-.039-.648,0-1.316-.02-1.964a1.744,1.744,0,0,0-1.748-1.63,1.768,1.768,0,0,0-1.709,1.65v1.375a1.6,1.6,0,0,0,.53,1.238c1.355,1.375,2.73,2.75,4.066,4.145a2.246,2.246,0,0,0,1.729.727c3.182-.02,6.365.02,9.527-.02a1.908,1.908,0,0,1,1.689,1.257,8.187,8.187,0,0,1,.157.963c.02,3.32,0,6.64.02,9.959a2.041,2.041,0,0,1-2.22,2.239c-2.4-.02-4.793,0-7.19,0-1.08,0-2.18,0-3.261-.079A1.6,1.6,0,0,1,136.394,149a2.93,2.93,0,0,1-.157-1.021c-.02-2.888-.02-5.795,0-8.683a1.87,1.87,0,0,0-.589-1.434c-1.572-1.591-3.143-3.182-4.715-4.793a1.912,1.912,0,0,0-1.454-.589c-3.045,0-6.07-.02-9.115.02a1.908,1.908,0,0,1-1.689-1.257,5.462,5.462,0,0,1-.157-.963c-.02-3.3.02-6.62-.02-9.92a2.075,2.075,0,0,1,2.3-2.279c2.711.039,5.4,0,8.113.02.746,0,1.513.02,2.259.059a1.62,1.62,0,0,1,1.454,1.277,14.266,14.266,0,0,1,.118,2.239,1.775,1.775,0,0,0,1.65,1.886,1.721,1.721,0,0,0,1.807-1.571c.02-.629-.02-1.257.02-1.886a1.888,1.888,0,0,1,1.277-1.905,2.8,2.8,0,0,1,.9-.138c3.3,0,6.581-.02,9.881,0a1.959,1.959,0,0,1,2.161,1.552.958.958,0,0,1,.02.334c0,3.556.02,7.111,0,10.647a1.9,1.9,0,0,1-1.866,1.847C146.864,132.444,145.116,132.483,143.348,132.483Z" transform="translate(-118.498 -118.056)" fill="#fff"/>
        <path id="XMLID_11_" d="M125.811,208.414c1.788,0,3.556.02,5.343,0a1.693,1.693,0,0,1,1.768,1.729c.039,3.634.039,7.288,0,10.922,0,.963-.648,1.768-2.063,1.768-3.182-.02-6.365,0-9.527,0a10.048,10.048,0,0,1-1.1-.059,1.487,1.487,0,0,1-1.355-1.12,3.288,3.288,0,0,1-.157-.963c-.02-3.477,0-6.954-.02-10.431a1.878,1.878,0,0,1,1.866-1.866C122.295,208.473,124.063,208.414,125.811,208.414Z" transform="translate(-118.66 -190.648)" fill="#fff"/>
      </g>
    </g>
  </g>
</svg>
