<svg width="32" height="32" xmlns="http://www.w3.org/2000/svg"><g fill="none" fill-rule="evenodd"><path d="M12.351 32H1.647C.737 32 0 31.263 0 30.353V19.647C0 18.737.737 18 1.647 18h10.706c.91 0 1.647.737 1.647 1.647v10.708A1.65 1.65 0 0 1 12.351 32" fill="#F6881F"/><path d="M32 12.495V1.82C32 .816 31.193 0 30.195 0H19.608c-.996 0-1.805.814-1.805 1.82V3.63c0 1.004-.807 1.82-1.805 1.82a1.813 1.813 0 0 1-1.805-1.82V1.82c0-1.004-.807-1.82-1.805-1.82H1.805C.809 0 0 .814 0 1.82v10.677c0 1.005.807 1.82 1.805 1.82h9.316a1.8 1.8 0 0 1 1.275.533l4.88 4.92c.338.343.527.805.527 1.287v9.123c0 1.004.807 1.82 1.805 1.82h10.587c.996 0 1.805-.814 1.805-1.82V19.505c0-1.005-.807-1.82-1.805-1.82h-9.89c-.48 0-.938-.193-1.275-.533l-4.305-4.342a1.825 1.825 0 0 1-.528-1.286V10.37c0-1.004.807-1.82 1.805-1.82.996 0 1.805.814 1.805 1.82v2.127c0 1.005.807 1.82 1.805 1.82h10.587A1.815 1.815 0 0 0 32 12.496" fill="#FFF"/></g></svg>