<?xml version="1.0" encoding="UTF-8"?>
<svg width="15px" height="14px" viewBox="0 0 15 14" version="1.1" xmlns="http://www.w3.org/2000/svg" xmlns:xlink="http://www.w3.org/1999/xlink">
    <!-- Generator: Sketch 64 (93537) - https://sketch.com -->
    <title>render-icon</title>
    <desc>Created with Sketch.</desc>
    <g id="Workspaces" stroke="none" stroke-width="1" fill="none" fill-rule="evenodd">
        <g id="Create-workspace-template-B.2" transform="translate(-856.000000, -673.000000)" stroke="#01579B" stroke-width="2">
            <g id="YAML-editor" transform="translate(60.000000, 658.000000)">
                <g id="Group">
                    <path d="M809,24 L798,24 C797.723858,24 797.473858,24.1119288 797.292893,24.2928932 C797.111929,24.4738576 797,24.7238576 797,25 L797,27 C797,27.2761424 797.111929,27.5261424 797.292893,27.7071068 C797.473858,27.8880712 797.723858,28 798,28 L809,28 C809.276142,28 809.526142,27.8880712 809.707107,27.7071068 C809.888071,27.5261424 810,27.2761424 810,27 L810,25 C810,24.7238576 809.888071,24.4738576 809.707107,24.2928932 C809.526142,24.1119288 809.276142,24 809,24 Z M809,16 L798,16 C797.723858,16 797.473858,16.1119288 797.292893,16.2928932 C797.111929,16.4738576 797,16.7238576 797,17 L797,19 C797,19.2761424 797.111929,19.5261424 797.292893,19.7071068 C797.473858,19.8880712 797.723858,20 798,20 L809,20 C809.276142,20 809.526142,19.8880712 809.707107,19.7071068 C809.888071,19.5261424 810,19.2761424 810,19 L810,17 C810,16.7238576 809.888071,16.4738576 809.707107,16.2928932 C809.526142,16.1119288 809.276142,16 809,16 Z" id="render-icon"></path>
                </g>
            </g>
        </g>
    </g>
</svg>