<svg width="199" height="200" xmlns="http://www.w3.org/2000/svg"><g fill="none" fill-rule="evenodd"><path d="M191.993 156.296c0 2.283-1.866 4.138-4.163 4.138H11.17c-2.297 0-4.163-1.855-4.163-4.138v-3.586h184.986m-62.936 38.005H69.943l13.45-23.32h32.214M7.007 46.983c0-2.28 1.866-4.137 4.163-4.137h176.66c2.297 0 4.163 1.856 4.163 4.137v98.764H7.007M127.803 35.882H11.17C5.01 35.882 0 40.863 0 46.983v109.313c0 6.122 5.01 11.099 11.17 11.099h64.148l-13.452 23.32H30.545c-2.58 0-4.672 2.08-4.672 4.644 0 2.566 2.092 4.641 4.672 4.641h137.908c2.578 0 4.671-2.075 4.671-4.641 0-2.565-2.093-4.644-4.671-4.644h-31.321l-13.448-23.32h64.146c6.16 0 11.17-4.977 11.17-11.099V46.983c0-6.12-5.01-11.1-11.17-11.1h-60.027z" fill="#01579B"/><path fill="#F5F6FA" fill-rule="nonzero" d="M75.139 33.529h49.897v12.353H75.139z"/><path d="M121.486 148.824H78.983a3.776 3.776 0 0 1-3.687-2.976 3.78 3.78 0 0 1 2.12-4.239c9.27-4.246 8.375-17.653 8.364-17.787a3.813 3.813 0 0 1 .993-2.862 3.782 3.782 0 0 1 2.768-1.212h21.387a3.76 3.76 0 0 1 2.772 1.217 3.803 3.803 0 0 1 .987 2.868c-.009.123-.905 13.53 8.365 17.776a3.777 3.777 0 0 1 2.12 4.24 3.777 3.777 0 0 1-3.686 2.975zm-32.538-7.561h22.566c-3.135-4.761-4.078-10.282-4.325-13.956H93.276c-.248 3.674-1.188 9.195-4.328 13.956z" fill="#01579B" fill-rule="nonzero"/><path d="M100.234 127.762c-5.022 0-9.766-1.676-13.36-4.721a3.023 3.023 0 0 1-.98-3.04l3.71-14.863a3.015 3.015 0 0 1 2.927-2.288h15.404a3.02 3.02 0 0 1 2.928 2.288l3.708 14.863a3.023 3.023 0 0 1-.98 3.04c-3.592 3.045-8.338 4.721-13.357 4.721zm-7.99-8.261c4.563 2.872 11.413 2.872 15.977 0l-2.645-10.606H94.889l-2.645 10.606z" fill="#01579B" fill-rule="nonzero"/><path d="M100.234 89.726c-9.884 0-17.924-8.054-17.924-17.954 0-9.902 8.04-17.956 17.924-17.956 9.883 0 17.923 8.054 17.923 17.956 0 9.9-8.042 17.954-17.923 17.954zm0-28.35c-5.722 0-10.377 4.666-10.377 10.396s4.655 10.394 10.377 10.394c5.72 0 10.375-4.664 10.375-10.394s-4.655-10.396-10.375-10.396z" fill="#F6881F" fill-rule="nonzero"/><path d="M134.356 68.937c.094-1.908.15-3.833.15-5.764 0-33.872-30.508-60.642-31.807-61.767a3.774 3.774 0 0 0-4.929 0c-1.301 1.125-31.809 27.895-31.809 61.767 0 1.931.056 3.851.152 5.757-6.667 4.98-27.205 23.747-12.69 57.171a3.78 3.78 0 0 0 3.462 2.27 3.768 3.768 0 0 0 3.214-1.799c.073-.12 7.464-11.884 21.647-12.822 6.028.625 12.24.958 18.488.958 6.246 0 12.457-.33 18.484-.956 14.058.929 21.343 12.343 21.641 12.82a3.774 3.774 0 0 0 3.478 1.79 3.773 3.773 0 0 0 3.196-2.26c14.51-33.409-6.003-52.171-12.677-57.165zM100.234 9.458c2.407 2.378 6.298 6.51 10.366 11.876-6.11 4.643-14.624 4.643-20.734 0 4.071-5.367 7.96-9.496 10.368-11.876zM58.115 117.145C51.67 96.711 60.7 83.972 66.924 78.034c.243 1.88.526 3.745.864 5.583 1.636 8.88 4.323 16.862 7.842 23.479-8.04 1.908-13.898 6.37-17.515 10.05zm25.773-10.768c-3.947-6.364-6.935-14.664-8.68-24.138-1.131-6.12-1.704-12.536-1.704-19.068 0-13.451 5.678-25.905 12.022-35.66a24.65 24.65 0 0 0 14.708 4.88 24.65 24.65 0 0 0 14.707-4.883c6.344 9.753 12.022 22.21 12.022 35.663 0 6.532-.573 12.947-1.703 19.068-1.744 9.472-4.73 17.774-8.681 24.138-10.678 1.018-22.013 1.018-32.691 0zm58.461 10.77c-3.617-3.678-9.475-8.138-17.508-10.053 3.514-6.615 6.204-14.602 7.842-23.482.34-1.85.62-3.73.869-5.623 6.239 5.902 15.308 18.6 8.797 39.159z" fill="#01579B" fill-rule="nonzero"/><path d="M132.13 145.728c-3.213-2.813-5.23-6.769-5.23-11.16 0-8.505 7.53-15.42 16.78-15.42 7.199 0 13.585 4.226 15.89 10.51.365 1 1.138 1.799 2.118 2.198a3.76 3.76 0 0 0 3.053-.094c1.54-.738 3.2-1.113 4.927-1.113 5.858 0 10.624 4.337 10.624 9.672 0 2-.67 3.862-1.818 5.407h8.436c.597-1.704.93-3.516.93-5.407 0-9.503-8.152-17.233-18.17-17.233-1.571 0-3.108.187-4.6.56-4.19-7.337-12.364-12.06-21.389-12.06-13.412 0-24.326 10.308-24.326 22.98 0 4.048 1.123 7.854 3.078 11.16h9.697zM20.634 145.728c-.014-.197-.058-.384-.058-.585 0-4.858 3.946-8.809 8.792-8.809 2.184 0 4.285.822 5.916 2.315a3.774 3.774 0 0 0 6.195-1.828c1.99-7.574 8.83-12.865 16.64-12.865 9.5 0 17.23 7.744 17.23 17.26 0 1.563-.227 3.07-.617 4.512h7.734c.27-1.465.43-2.97.43-4.512 0-13.688-11.114-24.82-24.776-24.82-9.526 0-18.051 5.468-22.167 13.773a16.226 16.226 0 0 0-6.585-1.393c-9.009 0-16.34 7.342-16.34 16.367 0 .196.023.388.03.585h7.576z" fill="#F6881F"/></g></svg>