<?xml version="1.0" encoding="UTF-8"?>
<svg width="37px" height="36px" viewBox="0 0 37 36" version="1.1" xmlns="http://www.w3.org/2000/svg" xmlns:xlink="http://www.w3.org/1999/xlink">
    <!-- Generator: Sketch 62 (91390) - https://sketch.com -->
    <title>Combined Shape</title>
    <desc>Created with Sketch.</desc>
    <g id="Page-1" stroke="none" stroke-width="1" fill="none" fill-rule="evenodd">
        <g id="workflows-00-list---empty" transform="translate(-702.000000, -362.000000)" fill="#888888">
            <g id="metric1-copy-10" transform="translate(50.000000, 215.000000)">
                <g id="Group-8" transform="translate(652.000000, 147.000000)">
                    <path d="M25.0296125,-6.88245596e-12 C26.1911582,-6.88245596e-12 27.1363611,0.945365957 27.1363611,2.10711213 L27.1363611,6.16731139 C27.1363611,7.32905756 26.1911582,8.27442352 25.0296125,8.27442352 L18.8157454,8.27441396 C18.8187141,8.30421939 18.8202341,8.33445442 18.8202341,8.3650477 L18.82,15.981 L26.159,15.981 L26.1595267,13.9494138 C26.1595267,12.7872684 27.1043304,11.8423017 28.2666744,11.8423017 L34.1322808,11.8423017 C35.2938265,11.8423017 36.2390294,12.7872684 36.2390294,13.9494138 L36.2390294,19.8152339 C36.2390294,20.9769801 35.2938265,21.9227453 34.1322808,21.9227453 L32.099,21.922 L32.0997753,25.7988256 C32.0997753,25.8406338 32.0969292,25.8817775 32.0914205,25.9220736 L34.1322808,25.9213878 C35.2938265,25.9213878 36.2390294,26.8667537 36.2390294,28.0284999 L36.2390294,33.89432 C36.2390294,35.0564654 35.2938265,36.0018314 34.1322808,36.0018314 L28.2666744,36.0018314 C27.1043304,36.0018314 26.1595267,35.0564654 26.1595267,33.89432 L26.1595267,28.0284999 C26.1595267,26.8667537 27.1043304,25.9213878 28.2666744,25.9213878 L30.3059306,25.9220736 C30.3004265,25.8817775 30.2975832,25.8406338 30.2975832,25.7988256 L30.297,21.922 L28.2666744,21.9227453 C27.1043304,21.9227453 26.1595267,20.9769801 26.1595267,19.8152339 L26.159,17.783 L18.82,17.783 L18.8202341,25.3996001 C18.8202341,25.594266 18.7585923,25.774526 18.6537325,25.9218817 L20.8511429,25.9213878 C22.013487,25.9213878 22.9582907,26.8667537 22.9582907,28.0284999 L22.9582907,33.89432 C22.9582907,35.0564654 22.013487,36.0018314 20.8511429,36.0018314 L14.9859357,36.0018314 C13.82439,36.0018314 12.878788,35.0564654 12.878788,33.89432 L12.878788,28.0284999 C12.878788,26.8667537 13.82439,25.9213878 14.9859357,25.9213878 L17.1843675,25.9218817 C17.0794067,25.774526 17.0176429,25.594266 17.0176429,25.3996001 L17.017,17.783 L10.0928515,17.7835754 L10.078,17.782 L10.0783052,20.2144594 C10.0783052,21.3762056 9.13270321,22.3219708 7.97115748,22.3219708 L5.94,22.321 L5.94,25.921 L7.97115748,25.9213878 C9.13270321,25.9213878 10.0783052,26.8667537 10.0783052,28.0284999 L10.0783052,33.89432 C10.0783052,35.0564654 9.13270321,36.0018314 7.97115748,36.0018314 L2.10634943,36.0018314 C0.944803693,36.0018314 -1.20637799e-12,35.0564654 -1.20637799e-12,33.89432 L-1.20637799e-12,28.0284999 C-1.20637799e-12,26.8667537 0.944803693,25.9213878 2.10634943,25.9213878 L4.138,25.921 L4.138,22.321 L2.10634943,22.3219708 C0.944803693,22.3219708 -1.20637799e-12,21.3762056 -1.20637799e-12,20.2144594 L-1.20637799e-12,14.3486393 C-1.20637799e-12,13.1864939 0.944803693,12.2415272 2.10634943,12.2415272 L7.97115748,12.2415272 C9.13270321,12.2415272 10.0783052,13.1864939 10.0783052,14.3486393 L10.0786576,15.9811819 C10.0833803,15.981109 10.0881117,15.9810723 10.0928515,15.9810723 L17.017,15.981 L17.0176429,8.3650477 L17.023,8.274 L10.86183,8.27442352 C9.70028428,8.27442352 8.75548059,7.32905756 8.75548059,6.16731139 L8.75548059,2.10711213 C8.75548059,0.945365957 9.70028428,-6.88245596e-12 10.86183,-6.88245596e-12 L25.0296125,-6.88245596e-12 Z M7.97115748,27.2731653 L2.10634943,27.2731653 C1.69042824,27.2731653 1.35154428,27.6121077 1.35154428,28.0284999 L1.35154428,33.89432 C1.35154428,34.3107122 1.69042824,34.6496546 2.10634943,34.6496546 L7.97115748,34.6496546 C8.38747782,34.6496546 8.72636179,34.3107122 8.72636179,33.89432 L8.72636179,28.0284999 C8.72636179,27.6121077 8.38747782,27.2731653 7.97115748,27.2731653 Z M20.8511429,27.2731653 L14.9859357,27.2731653 C14.5696154,27.2731653 14.2307314,27.6121077 14.2307314,28.0284999 L14.2307314,33.89432 C14.2307314,34.3107122 14.5696154,34.6496546 14.9859357,34.6496546 L20.8511429,34.6496546 C21.2682616,34.6496546 21.6063472,34.3107122 21.6063472,33.89432 L21.6063472,28.0284999 C21.6063472,27.6121077 21.2682616,27.2731653 20.8511429,27.2731653 Z M34.1322808,27.2731653 L28.2666744,27.2731653 C27.8495558,27.2731653 27.511071,27.6121077 27.511071,28.0284999 L27.511071,33.89432 C27.511071,34.3107122 27.8495558,34.6496546 28.2666744,34.6496546 L34.1322808,34.6496546 C34.5486011,34.6496546 34.8870859,34.3107122 34.8870859,33.89432 L34.8870859,28.0284999 C34.8870859,27.6121077 34.5486011,27.2731653 34.1322808,27.2731653 Z M6.73257452,30.28612 C7.10578595,30.28612 7.40834666,30.588733 7.40834666,30.962408 C7.40834666,31.3356839 7.10578595,31.6382968 6.73257452,31.6382968 L3.34493238,31.6382968 C2.97172095,31.6382968 2.66916024,31.3356839 2.66916024,30.962408 C2.66916024,30.588733 2.97172095,30.28612 3.34493238,30.28612 L6.73257452,30.28612 Z M32.8921012,30.28612 C33.2645143,30.28612 33.5678733,30.588733 33.5678733,30.962408 C33.5678733,31.3356839 33.2645143,31.6382968 32.8921012,31.6382968 L29.5052574,31.6382968 C29.132046,31.6382968 28.8294852,31.3356839 28.8294852,30.962408 C28.8294852,30.588733 29.132046,30.28612 29.5052574,30.28612 L32.8921012,30.28612 Z M19.6121608,30.28612 C19.9857714,30.28612 20.2883321,30.588733 20.2883321,30.962408 C20.2883321,31.3356839 19.9857714,31.6382968 19.6121608,31.6382968 L16.2257162,31.6382968 C15.8521056,31.6382968 15.549944,31.3356839 15.549944,30.962408 C15.549944,30.588733 15.8521056,30.28612 16.2257162,30.28612 L19.6121608,30.28612 Z M7.97115748,13.5933047 L2.10634943,13.5933047 C1.69042824,13.5933047 1.35154428,13.9322471 1.35154428,14.3486393 L1.35154428,20.2144594 C1.35154428,20.6308516 1.69042824,20.9697941 2.10634943,20.9697941 L7.97115748,20.9697941 C8.38747782,20.9697941 8.72636179,20.6308516 8.72636179,20.2144594 L8.72636179,14.3486393 C8.72636179,13.9322471 8.38747782,13.5933047 7.97115748,13.5933047 Z M34.1322808,13.1940792 L28.2666744,13.1940792 C27.8495558,13.1940792 27.511071,13.5330217 27.511071,13.9494138 L27.511071,19.8152339 C27.511071,20.2316261 27.8495558,20.5705686 28.2666744,20.5705686 L34.1322808,20.5705686 C34.5486011,20.5705686 34.8870859,20.2316261 34.8870859,19.8152339 L34.8870859,13.9494138 C34.8870859,13.5330217 34.5486011,13.1940792 34.1322808,13.1940792 Z M6.73257452,16.605461 C7.10578595,16.605461 7.40834666,16.9080739 7.40834666,17.281749 C7.40834666,17.6550248 7.10578595,17.9576377 6.73257452,17.9576377 L3.34493238,17.9576377 C2.97172095,17.9576377 2.66916024,17.6550248 2.66916024,17.281749 C2.66916024,16.9080739 2.97172095,16.605461 3.34493238,16.605461 L6.73257452,16.605461 Z M32.8921012,16.2062355 C33.2645143,16.2062355 33.5678733,16.5088484 33.5678733,16.8825235 C33.5678733,17.2557993 33.2645143,17.5584123 32.8921012,17.5584123 L29.5052574,17.5584123 C29.132046,17.5584123 28.8294852,17.2557993 28.8294852,16.8825235 C28.8294852,16.5088484 29.132046,16.2062355 29.5052574,16.2062355 L32.8921012,16.2062355 Z M25.0296125,1.35217673 L10.86183,1.35217673 C10.4459088,1.35217673 10.1070249,1.69071994 10.1070249,2.10711213 L10.1070249,6.16731139 C10.1070249,6.58370357 10.4459088,6.92224679 10.86183,6.92224679 L25.0296125,6.92224679 C25.4459328,6.92224679 25.7844176,6.58370357 25.7844176,6.16731139 L25.7844176,2.10711213 C25.7844176,1.69071994 25.4459328,1.35217673 25.0296125,1.35217673 Z M23.7273893,3.61204013 C24.1022785,3.61204013 24.4076545,3.91465305 24.4076545,4.28832811 C24.4076545,4.66160394 24.1022785,4.96421686 23.7273893,4.96421686 L12.4457792,4.96421686 C12.0700864,4.96421686 11.765514,4.66160394 11.765514,4.28832811 C11.765514,3.91465305 12.0700864,3.61204013 12.4457792,3.61204013 L23.7273893,3.61204013 Z" id="Combined-Shape"></path>
                </g>
            </g>
        </g>
    </g>
</svg>