<svg width="24" height="23" xmlns="http://www.w3.org/2000/svg"><g fill="none" fill-rule="evenodd"><path d="M11.624 16.803a.576.576 0 0 1-.576-.575V5.344a.576.576 0 1 1 1.151 0v10.884a.576.576 0 0 1-.575.575" fill="#9B9B9B"/><path d="M17.065 11.362h-5.441a.576.576 0 0 1 0-1.152h5.441a.576.576 0 0 1 0 1.152" fill="#9B9B9B"/><path d="M12.065 11.362H6.624a.576.576 0 0 1 0-1.152h5.441a.576.576 0 0 1 0 1.152M20.108 17.059a.576.576 0 0 1-.576-.576v-2.654a.576.576 0 1 1 1.152 0v2.654a.576.576 0 0 1-.576.576M3.395 17.314a.576.576 0 0 1-.576-.576v-2.654a.576.576 0 1 1 1.152 0v2.654a.576.576 0 0 1-.576.576" fill="#9B9B9B"/><path d="M1.521 8.685a.483.483 0 0 0-.482.482v3.748c0 .266.216.482.482.482h3.747a.483.483 0 0 0 .483-.482V9.167a.483.483 0 0 0-.483-.482H1.521zm3.747 5.576H1.521a1.348 1.348 0 0 1-1.346-1.346V9.167c0-.742.604-1.346 1.346-1.346h3.747c.742 0 1.346.604 1.346 1.346v3.748c0 .742-.604 1.346-1.346 1.346zM18.235 8.43a.483.483 0 0 0-.483.482v3.748c0 .266.216.482.483.482h3.747a.483.483 0 0 0 .482-.482V8.912a.483.483 0 0 0-.482-.482h-3.747zm3.747 5.576h-3.747a1.348 1.348 0 0 1-1.347-1.346V8.912c0-.742.604-1.346 1.347-1.346h3.747c.742 0 1.346.604 1.346 1.346v3.748c0 .742-.604 1.346-1.346 1.346zM1.521 17.425a.483.483 0 0 0-.482.482v3.748c0 .266.216.482.482.482h3.747a.483.483 0 0 0 .483-.482v-3.748a.483.483 0 0 0-.483-.482H1.521zM5.268 23H1.521a1.348 1.348 0 0 1-1.346-1.346v-3.748c0-.742.604-1.346 1.346-1.346h3.747c.742 0 1.346.604 1.346 1.346v3.748c0 .742-.604 1.346-1.346 1.346zM9.75 17.425a.483.483 0 0 0-.483.482v3.748c0 .266.217.482.483.482h3.747a.483.483 0 0 0 .483-.482v-3.748a.483.483 0 0 0-.483-.482H9.75zM13.497 23H9.75a1.348 1.348 0 0 1-1.346-1.346v-3.748c0-.742.604-1.346 1.346-1.346h3.747c.743 0 1.346.604 1.346 1.346v3.748c0 .742-.603 1.346-1.346 1.346zM18.235 17.425a.483.483 0 0 0-.483.482v3.748c0 .266.216.482.483.482h3.747a.483.483 0 0 0 .482-.482v-3.748a.483.483 0 0 0-.482-.482h-3.747zM21.982 23h-3.747a1.348 1.348 0 0 1-1.347-1.346v-3.748c0-.742.604-1.346 1.347-1.346h3.747c.742 0 1.346.604 1.346 1.346v3.748c0 .742-.604 1.346-1.346 1.346z" fill="#9B9B9B"/><path d="M7.115.864a.483.483 0 0 0-.482.482V3.94c0 .266.216.483.482.483h9.052a.483.483 0 0 0 .482-.483V1.346a.483.483 0 0 0-.482-.482H7.115zm0 4.422A1.347 1.347 0 0 1 5.769 3.94V1.346C5.77.604 6.373 0 7.115 0h9.052c.742 0 1.346.604 1.346 1.346V3.94c0 .742-.604 1.346-1.346 1.346H7.115z" fill="#F6881F"/><path d="M8.127 3.172a.433.433 0 0 1-.435-.432c0-.239.195-.432.435-.432h7.208c.24 0 .434.193.434.432a.434.434 0 0 1-.434.432H8.127z" fill="#F6881F"/><path d="M4.477 11.473H2.312a.432.432 0 0 1 0-.864h2.165a.432.432 0 0 1 0 .864M21.19 11.218h-2.164a.432.432 0 0 1 0-.864h2.164a.432.432 0 0 1 0 .864M4.477 20.213H2.312a.432.432 0 0 1 0-.864h2.165a.432.432 0 0 1 0 .864M21.19 20.213h-2.164a.432.432 0 0 1 0-.864h2.164a.432.432 0 0 1 0 .864M12.705 20.213h-2.163a.432.432 0 1 1 0-.864h2.163a.432.432 0 1 1 0 .864" fill="#9B9B9B"/></g></svg>